<svg viewBox="0 0 11 11" width="220px" height="220px" xmlns="http://www.w3.org/2000/svg"><path fill-rule="evenodd" d="M 2,0 11,0 11,3 10,3 10,5 11,5 11,10 9,10 9,11 3,11 3,8 2,8z" fill="#A854A8"/><path fill-rule="evenodd" d="M 3,1 4,1 4,3 5,3 5,1 6,1 6,5 5,5 5,4 4,4 4,5 3,5z" fill="#ffffff"/><path fill-rule="evenodd" d="M 7,1 10,1 10,2 9,2 9,5 8,5 8,2 7,2z" fill="#ffffff"/><path fill-rule="evenodd" d="M 3,6 6,6 6,7 5,7 5,10 4,10 4,7 3,7z" fill="#ffffff"/><path fill-rule="evenodd" d="M 7,6 10,6 10,9 8,9 8,10 7,10z M 8,7 9,7 9,8 8,8z" fill="#ffffff"/></svg>